<svg width="197" height="93" viewBox="0 0 197 93" fill="none" xmlns="http://www.w3.org/2000/svg">
<path d="M0.5 1C0.5 1 45 3 71.5 7.5C98 12 88 34.5 71.5 53C55 71.5 78.5 84.5 112.5 89.5C146.5 94.5 194 89.5 194 89.5M194 89.5L191 87M194 89.5L191.5 92.5" stroke="black"/>
<g filter="url(#filter0_d)">
<path d="M68 20H101V43H68V20Z" fill="#C4C4C4" fill-opacity="0.01"/>
<path d="M52.5 54H85.5V77H52.5V54Z" fill="#C4C4C4" fill-opacity="0.01"/>
</g>
<path d="M10.028 36.146C10.328 36.146 10.478 36.308 10.478 36.632C10.478 36.944 10.13 37.298 9.434 37.694C8.738 38.078 8.006 38.27 7.238 38.27C5.978 38.27 4.928 37.808 4.088 36.884C3.248 35.948 2.828 34.82 2.828 33.5C2.828 32.18 3.248 31.058 4.088 30.134C4.94 29.198 6.056 28.73 7.436 28.73C8.192 28.73 8.858 28.904 9.434 29.252C10.022 29.588 10.316 29.936 10.316 30.296C10.316 30.488 10.256 30.65 10.136 30.782C10.016 30.902 9.878 30.962 9.722 30.962C9.566 30.962 9.386 30.872 9.182 30.692C8.558 30.164 7.922 29.9 7.274 29.9C6.446 29.9 5.72 30.248 5.096 30.944C4.484 31.64 4.178 32.486 4.178 33.482C4.178 34.478 4.49 35.33 5.114 36.038C5.738 36.746 6.512 37.1 7.436 37.1C8.144 37.1 8.834 36.86 9.506 36.38C9.734 36.224 9.908 36.146 10.028 36.146ZM18.128 36.038C18.716 35.33 19.01 34.478 19.01 33.482C19.01 32.486 18.728 31.64 18.164 30.944C17.612 30.248 16.922 29.9 16.094 29.9C15.266 29.9 14.558 30.254 13.97 30.962C13.394 31.67 13.106 32.522 13.106 33.518C13.106 34.514 13.382 35.36 13.934 36.056C14.498 36.752 15.194 37.1 16.022 37.1C16.85 37.1 17.552 36.746 18.128 36.038ZM16.058 28.73C17.294 28.73 18.308 29.192 19.1 30.116C19.892 31.028 20.288 32.15 20.288 33.482C20.288 34.814 19.886 35.948 19.082 36.884C18.278 37.808 17.264 38.27 16.04 38.27C14.816 38.27 13.808 37.814 13.016 36.902C12.224 35.978 11.828 34.85 11.828 33.518C11.828 32.186 12.224 31.058 13.016 30.134C13.82 29.198 14.834 28.73 16.058 28.73ZM30.0354 32.33L29.9454 35.156C29.9454 35.492 29.9454 35.75 29.9454 35.93C29.9574 36.098 29.9934 36.278 30.0534 36.47C30.1254 36.65 30.2094 36.764 30.3054 36.812C30.4014 36.848 30.4974 36.872 30.5934 36.884C30.7014 36.896 30.7734 36.914 30.8094 36.938C30.8574 36.962 30.8814 37.01 30.8814 37.082C30.8814 37.394 30.7794 37.658 30.5754 37.874C30.3834 38.078 30.1554 38.18 29.8914 38.18C29.4354 38.18 29.1174 38 28.9374 37.64C28.7694 37.28 28.6854 36.752 28.6854 36.056L28.7574 32.744C28.7574 31.928 28.5834 31.268 28.2354 30.764C27.8874 30.26 27.4014 30.008 26.7774 30.008C26.1654 30.008 25.5714 30.35 24.9954 31.034C24.4194 31.718 24.0174 32.492 23.7894 33.356L23.8434 37.262C23.8434 37.874 23.6154 38.18 23.1594 38.18C22.6074 38.18 22.3314 37.76 22.3314 36.92C22.3314 36.068 22.4514 34.88 22.6914 33.356C22.6914 32.852 22.6374 32.156 22.5294 31.268C22.4334 30.38 22.3854 29.834 22.3854 29.63C22.3854 29.414 22.4454 29.228 22.5654 29.072C22.6974 28.904 22.8714 28.82 23.0874 28.82C23.3034 28.82 23.4714 28.904 23.5914 29.072C23.7234 29.228 23.7894 29.408 23.7894 29.612C23.7894 29.816 23.7834 30.068 23.7714 30.368C23.7714 30.656 23.7714 30.902 23.7714 31.106C24.6474 29.582 25.7274 28.82 27.0114 28.82C27.9714 28.82 28.7154 29.162 29.2434 29.846C29.7714 30.53 30.0354 31.358 30.0354 32.33ZM35.6206 36.38C35.6926 36.5 35.7466 36.56 35.7826 36.56C35.8186 36.56 35.8666 36.5 35.9266 36.38C35.9986 36.248 36.0886 36.044 36.1966 35.768C36.3046 35.492 36.3946 35.246 36.4666 35.03C36.5506 34.814 36.6706 34.496 36.8266 34.076L37.1326 33.194C37.3246 32.666 37.5646 31.952 37.8526 31.052C38.1406 30.14 38.3146 29.612 38.3746 29.468C38.5426 29.036 38.7766 28.82 39.0766 28.82C39.2566 28.82 39.4066 28.88 39.5266 29C39.6586 29.108 39.7246 29.246 39.7246 29.414C39.7246 29.57 39.6706 29.786 39.5626 30.062C39.4666 30.326 39.2806 30.806 39.0046 31.502C38.7406 32.186 38.3566 33.224 37.8526 34.616C37.3606 36.008 36.9886 36.95 36.7366 37.442C36.4846 37.934 36.1486 38.18 35.7286 38.18C35.3206 38.18 35.0086 37.964 34.7926 37.532C34.7086 37.364 34.3966 36.572 33.8566 35.156C33.3166 33.728 32.9566 32.786 32.7766 32.33C32.5966 31.874 32.4526 31.52 32.3446 31.268C32.2486 31.016 32.1586 30.764 32.0746 30.512C31.8946 30.008 31.8046 29.66 31.8046 29.468C31.8046 29.264 31.8646 29.108 31.9846 29C32.1046 28.88 32.2546 28.82 32.4346 28.82C32.7586 28.82 33.0046 29.03 33.1726 29.45C33.2326 29.594 33.4066 30.122 33.6946 31.034C33.9946 31.934 34.2106 32.564 34.3426 32.924C34.4746 33.272 34.6126 33.65 34.7566 34.058C34.9006 34.466 35.0086 34.784 35.0806 35.012C35.1646 35.24 35.2606 35.492 35.3686 35.768C35.4766 36.044 35.5606 36.248 35.6206 36.38ZM44.987 33.158C45.803 33.158 46.451 33.02 46.931 32.744C47.423 32.468 47.669 32.096 47.669 31.628C47.669 31.16 47.507 30.758 47.183 30.422C46.871 30.074 46.421 29.9 45.833 29.9C45.041 29.9 44.375 30.2 43.835 30.8C43.295 31.388 42.947 32.078 42.791 32.87C43.451 33.062 44.183 33.158 44.987 33.158ZM45.671 28.73C46.643 28.73 47.429 29 48.029 29.54C48.641 30.08 48.947 30.782 48.947 31.646C48.947 32.51 48.569 33.17 47.813 33.626C47.069 34.07 46.151 34.292 45.059 34.292C44.435 34.292 43.673 34.202 42.773 34.022C42.845 34.862 43.157 35.588 43.709 36.2C44.273 36.8 44.897 37.1 45.581 37.1C45.989 37.1 46.367 37.046 46.715 36.938C47.063 36.818 47.327 36.692 47.507 36.56C47.987 36.188 48.299 36.002 48.443 36.002C48.599 36.002 48.719 36.05 48.803 36.146C48.899 36.23 48.947 36.338 48.947 36.47C48.947 36.806 48.599 37.19 47.903 37.622C47.219 38.054 46.475 38.27 45.671 38.27C44.423 38.27 43.433 37.832 42.701 36.956C41.969 36.08 41.573 35.024 41.513 33.788C40.877 33.596 40.559 33.284 40.559 32.852C40.559 32.672 40.607 32.534 40.703 32.438C40.811 32.33 40.937 32.276 41.081 32.276C41.225 32.276 41.405 32.33 41.621 32.438C41.885 31.358 42.383 30.47 43.115 29.774C43.859 29.078 44.711 28.73 45.671 28.73ZM52.5121 33.878L52.5661 37.262C52.5661 37.874 52.3381 38.18 51.8821 38.18C51.3301 38.18 51.0541 37.76 51.0541 36.92C51.0541 36.068 51.1741 34.88 51.4141 33.356C51.4141 32.852 51.3601 32.162 51.2521 31.286C51.1561 30.41 51.1081 29.864 51.1081 29.648C51.1081 29.432 51.1681 29.24 51.2881 29.072C51.4201 28.904 51.5941 28.82 51.8101 28.82C52.0261 28.82 52.1941 28.904 52.3141 29.072C52.4461 29.24 52.5121 29.426 52.5121 29.63C52.5121 29.822 52.5061 30.074 52.4941 30.386C52.4941 30.686 52.4941 30.938 52.4941 31.142C52.7341 30.53 53.1061 29.99 53.6101 29.522C54.1261 29.054 54.6541 28.82 55.1941 28.82C55.7341 28.82 56.1481 28.934 56.4361 29.162C56.7361 29.378 56.8861 29.612 56.8861 29.864C56.8861 30.116 56.8201 30.314 56.6881 30.458C56.5561 30.602 56.3821 30.674 56.1661 30.674C55.9621 30.674 55.7341 30.566 55.4821 30.35C55.2421 30.122 55.0501 30.008 54.9061 30.008C54.5101 30.008 54.0481 30.434 53.5201 31.286C52.9921 32.138 52.6561 33.002 52.5121 33.878ZM60.4717 30.098L60.4357 34.364C60.4357 35.456 60.4777 36.17 60.5617 36.506C60.6577 36.842 60.8977 37.01 61.2817 37.01C61.4617 37.01 61.6777 36.95 61.9297 36.83C62.1937 36.698 62.3677 36.632 62.4517 36.632C62.7037 36.632 62.8297 36.758 62.8297 37.01C62.8297 37.25 62.6077 37.508 62.1637 37.784C61.7197 38.048 61.2817 38.18 60.8497 38.18C59.8057 38.18 59.2837 37.412 59.2837 35.876L59.2657 30.098C58.8697 30.134 58.5937 30.152 58.4377 30.152C57.8377 30.152 57.5377 29.954 57.5377 29.558C57.5377 29.162 57.8377 28.964 58.4377 28.964C58.4857 28.964 58.7497 28.976 59.2297 29L59.1937 26.984C59.1937 26.384 59.4217 26.084 59.8777 26.084C60.3337 26.084 60.5617 26.384 60.5617 26.984L60.5077 29.018L61.9657 28.946C62.5657 28.946 62.8657 29.15 62.8657 29.558C62.8657 29.942 62.5657 30.134 61.9657 30.134C61.8577 30.134 61.3597 30.122 60.4717 30.098ZM70.8253 30.098L70.7893 34.364C70.7893 35.456 70.8313 36.17 70.9153 36.506C71.0113 36.842 71.2513 37.01 71.6353 37.01C71.8153 37.01 72.0313 36.95 72.2832 36.83C72.5473 36.698 72.7213 36.632 72.8053 36.632C73.0573 36.632 73.1833 36.758 73.1833 37.01C73.1833 37.25 72.9613 37.508 72.5173 37.784C72.0733 38.048 71.6353 38.18 71.2033 38.18C70.1593 38.18 69.6373 37.412 69.6373 35.876L69.6193 30.098C69.2233 30.134 68.9473 30.152 68.7913 30.152C68.1913 30.152 67.8913 29.954 67.8913 29.558C67.8913 29.162 68.1913 28.964 68.7913 28.964C68.8393 28.964 69.1033 28.976 69.5833 29L69.5473 26.984C69.5473 26.384 69.7753 26.084 70.2313 26.084C70.6873 26.084 70.9153 26.384 70.9153 26.984L70.8613 29.018L72.3193 28.946C72.9193 28.946 73.2193 29.15 73.2193 29.558C73.2193 29.942 72.9193 30.134 72.3193 30.134C72.2113 30.134 71.7133 30.122 70.8253 30.098ZM82.4877 32.33L82.3977 35.156C82.3977 35.492 82.3977 35.75 82.3977 35.93C82.4097 36.098 82.4457 36.278 82.5057 36.47C82.5777 36.65 82.6617 36.764 82.7577 36.812C82.8537 36.848 82.9497 36.872 83.0457 36.884C83.1537 36.896 83.2257 36.914 83.2617 36.938C83.3097 36.962 83.3337 37.01 83.3337 37.082C83.3337 37.394 83.2317 37.658 83.0277 37.874C82.8357 38.078 82.6077 38.18 82.3437 38.18C81.8877 38.18 81.5697 38 81.3897 37.64C81.2217 37.28 81.1377 36.752 81.1377 36.056L81.2097 32.744C81.2097 31.928 81.0357 31.268 80.6877 30.764C80.3397 30.26 79.8537 30.008 79.2297 30.008C78.6177 30.008 78.0237 30.35 77.4477 31.034C76.8717 31.718 76.4697 32.492 76.2417 33.356L76.2957 37.262C76.2957 37.874 76.0677 38.18 75.6117 38.18C75.0597 38.18 74.7837 37.76 74.7837 36.92C74.7837 36.068 74.9037 34.88 75.1437 33.356C75.1437 32.54 75.0897 31.004 74.9817 28.748C74.8737 26.48 74.8197 25.256 74.8197 25.076C74.8197 24.896 74.8797 24.728 74.9997 24.572C75.1317 24.404 75.3057 24.32 75.5217 24.32C75.7377 24.32 75.9057 24.404 76.0257 24.572C76.1577 24.728 76.2237 24.944 76.2237 25.22V31.106C77.0997 29.582 78.1797 28.82 79.4637 28.82C80.4237 28.82 81.1677 29.162 81.6957 29.846C82.2237 30.53 82.4877 31.358 82.4877 32.33ZM86.0904 24.95C86.3424 24.95 86.5284 25.034 86.6484 25.202C86.7684 25.358 86.8284 25.562 86.8284 25.814C86.8284 26.054 86.7444 26.3 86.5764 26.552C86.4084 26.792 86.1984 26.912 85.9464 26.912C85.6944 26.912 85.5024 26.828 85.3704 26.66C85.2504 26.492 85.1904 26.27 85.1904 25.994C85.1904 25.718 85.2744 25.478 85.4424 25.274C85.6224 25.058 85.8384 24.95 86.0904 24.95ZM86.5944 33.5L86.6844 37.28C86.6844 37.88 86.4564 38.18 86.0004 38.18C85.5444 38.18 85.3164 37.88 85.3164 37.28L85.4064 33.5L85.3164 29.72C85.3164 29.12 85.5444 28.82 86.0004 28.82C86.4564 28.82 86.6844 29.12 86.6844 29.72L86.5944 33.5ZM95.4978 35.408C95.4978 36.224 95.1618 36.89 94.4898 37.406C93.8298 37.922 93.0318 38.18 92.0958 38.18C91.1718 38.18 90.3678 37.97 89.6838 37.55C88.9998 37.118 88.6578 36.692 88.6578 36.272C88.6578 36.092 88.7118 35.948 88.8198 35.84C88.9278 35.72 89.0478 35.66 89.1798 35.66C89.3238 35.66 89.4378 35.69 89.5218 35.75C89.6058 35.798 89.7198 35.9 89.8638 36.056C90.0078 36.212 90.1338 36.344 90.2418 36.452C90.3618 36.56 90.5958 36.68 90.9438 36.812C91.3038 36.944 91.6338 37.01 91.9338 37.01C92.5938 37.01 93.1338 36.878 93.5538 36.614C93.9858 36.338 94.2018 35.942 94.2018 35.426C94.2018 34.802 93.6018 34.28 92.4018 33.86C91.9098 33.692 91.4118 33.512 90.9078 33.32C90.4158 33.116 89.9958 32.84 89.6478 32.492C89.2998 32.144 89.1258 31.73 89.1258 31.25C89.1258 30.602 89.4198 30.038 90.0078 29.558C90.5958 29.066 91.3158 28.82 92.1678 28.82C93.0198 28.82 93.6918 28.97 94.1838 29.27C94.6878 29.558 94.9398 29.864 94.9398 30.188C94.9398 30.584 94.7298 30.782 94.3098 30.782C94.1298 30.782 93.9498 30.716 93.7698 30.584C93.2058 30.188 92.6658 29.99 92.1498 29.99C91.6338 29.99 91.2138 30.11 90.8898 30.35C90.5658 30.578 90.4038 30.848 90.4038 31.16C90.4038 31.46 90.5778 31.718 90.9258 31.934C91.2738 32.15 91.6938 32.348 92.1858 32.528C92.6898 32.708 93.1938 32.912 93.6978 33.14C94.2018 33.356 94.6278 33.662 94.9758 34.058C95.3238 34.442 95.4978 34.892 95.4978 35.408ZM108.518 36.146C108.818 36.146 108.968 36.308 108.968 36.632C108.968 36.944 108.62 37.298 107.924 37.694C107.228 38.078 106.496 38.27 105.728 38.27C104.468 38.27 103.418 37.808 102.578 36.884C101.738 35.948 101.318 34.82 101.318 33.5C101.318 32.18 101.738 31.058 102.578 30.134C103.43 29.198 104.546 28.73 105.926 28.73C106.682 28.73 107.348 28.904 107.924 29.252C108.512 29.588 108.806 29.936 108.806 30.296C108.806 30.488 108.746 30.65 108.626 30.782C108.506 30.902 108.368 30.962 108.212 30.962C108.056 30.962 107.876 30.872 107.672 30.692C107.048 30.164 106.412 29.9 105.764 29.9C104.936 29.9 104.21 30.248 103.586 30.944C102.974 31.64 102.668 32.486 102.668 33.482C102.668 34.478 102.98 35.33 103.604 36.038C104.228 36.746 105.002 37.1 105.926 37.1C106.634 37.1 107.324 36.86 107.996 36.38C108.224 36.224 108.398 36.146 108.518 36.146ZM118.54 32.33L118.45 35.156C118.45 35.492 118.45 35.75 118.45 35.93C118.462 36.098 118.498 36.278 118.558 36.47C118.63 36.65 118.714 36.764 118.81 36.812C118.906 36.848 119.002 36.872 119.098 36.884C119.206 36.896 119.278 36.914 119.314 36.938C119.362 36.962 119.386 37.01 119.386 37.082C119.386 37.394 119.284 37.658 119.08 37.874C118.888 38.078 118.66 38.18 118.396 38.18C117.94 38.18 117.622 38 117.442 37.64C117.274 37.28 117.19 36.752 117.19 36.056L117.262 32.744C117.262 31.928 117.088 31.268 116.74 30.764C116.392 30.26 115.906 30.008 115.282 30.008C114.67 30.008 114.076 30.35 113.5 31.034C112.924 31.718 112.522 32.492 112.294 33.356L112.348 37.262C112.348 37.874 112.12 38.18 111.664 38.18C111.112 38.18 110.836 37.76 110.836 36.92C110.836 36.068 110.956 34.88 111.196 33.356C111.196 32.54 111.142 31.004 111.034 28.748C110.926 26.48 110.872 25.256 110.872 25.076C110.872 24.896 110.932 24.728 111.052 24.572C111.184 24.404 111.358 24.32 111.574 24.32C111.79 24.32 111.958 24.404 112.078 24.572C112.21 24.728 112.276 24.944 112.276 25.22V31.106C113.152 29.582 114.232 28.82 115.516 28.82C116.476 28.82 117.22 29.162 117.748 29.846C118.276 30.53 118.54 31.358 118.54 32.33ZM124.897 33.158C125.713 33.158 126.361 33.02 126.841 32.744C127.333 32.468 127.579 32.096 127.579 31.628C127.579 31.16 127.417 30.758 127.093 30.422C126.781 30.074 126.331 29.9 125.743 29.9C124.951 29.9 124.285 30.2 123.745 30.8C123.205 31.388 122.857 32.078 122.701 32.87C123.361 33.062 124.093 33.158 124.897 33.158ZM125.581 28.73C126.553 28.73 127.339 29 127.939 29.54C128.551 30.08 128.857 30.782 128.857 31.646C128.857 32.51 128.479 33.17 127.723 33.626C126.979 34.07 126.061 34.292 124.969 34.292C124.345 34.292 123.583 34.202 122.683 34.022C122.755 34.862 123.067 35.588 123.619 36.2C124.183 36.8 124.807 37.1 125.491 37.1C125.899 37.1 126.277 37.046 126.625 36.938C126.973 36.818 127.237 36.692 127.417 36.56C127.897 36.188 128.209 36.002 128.353 36.002C128.509 36.002 128.629 36.05 128.713 36.146C128.809 36.23 128.857 36.338 128.857 36.47C128.857 36.806 128.509 37.19 127.813 37.622C127.129 38.054 126.385 38.27 125.581 38.27C124.333 38.27 123.343 37.832 122.611 36.956C121.879 36.08 121.483 35.024 121.423 33.788C120.787 33.596 120.469 33.284 120.469 32.852C120.469 32.672 120.517 32.534 120.613 32.438C120.721 32.33 120.847 32.276 120.991 32.276C121.135 32.276 121.315 32.33 121.531 32.438C121.795 31.358 122.293 30.47 123.025 29.774C123.769 29.078 124.621 28.73 125.581 28.73ZM137.228 35.408C137.228 36.224 136.892 36.89 136.22 37.406C135.56 37.922 134.762 38.18 133.826 38.18C132.902 38.18 132.098 37.97 131.414 37.55C130.73 37.118 130.388 36.692 130.388 36.272C130.388 36.092 130.442 35.948 130.55 35.84C130.658 35.72 130.778 35.66 130.91 35.66C131.054 35.66 131.168 35.69 131.252 35.75C131.336 35.798 131.45 35.9 131.594 36.056C131.738 36.212 131.864 36.344 131.972 36.452C132.092 36.56 132.326 36.68 132.674 36.812C133.034 36.944 133.364 37.01 133.664 37.01C134.324 37.01 134.864 36.878 135.284 36.614C135.716 36.338 135.932 35.942 135.932 35.426C135.932 34.802 135.332 34.28 134.132 33.86C133.64 33.692 133.142 33.512 132.638 33.32C132.146 33.116 131.726 32.84 131.378 32.492C131.03 32.144 130.856 31.73 130.856 31.25C130.856 30.602 131.15 30.038 131.738 29.558C132.326 29.066 133.046 28.82 133.898 28.82C134.75 28.82 135.422 28.97 135.914 29.27C136.418 29.558 136.67 29.864 136.67 30.188C136.67 30.584 136.46 30.782 136.04 30.782C135.86 30.782 135.68 30.716 135.5 30.584C134.936 30.188 134.396 29.99 133.88 29.99C133.364 29.99 132.944 30.11 132.62 30.35C132.296 30.578 132.134 30.848 132.134 31.16C132.134 31.46 132.308 31.718 132.656 31.934C133.004 32.15 133.424 32.348 133.916 32.528C134.42 32.708 134.924 32.912 135.428 33.14C135.932 33.356 136.358 33.662 136.706 34.058C137.054 34.442 137.228 34.892 137.228 35.408ZM145.42 35.408C145.42 36.224 145.084 36.89 144.412 37.406C143.752 37.922 142.954 38.18 142.018 38.18C141.094 38.18 140.29 37.97 139.606 37.55C138.922 37.118 138.58 36.692 138.58 36.272C138.58 36.092 138.634 35.948 138.742 35.84C138.85 35.72 138.97 35.66 139.102 35.66C139.246 35.66 139.36 35.69 139.444 35.75C139.528 35.798 139.642 35.9 139.786 36.056C139.93 36.212 140.056 36.344 140.164 36.452C140.284 36.56 140.518 36.68 140.866 36.812C141.226 36.944 141.556 37.01 141.856 37.01C142.516 37.01 143.056 36.878 143.476 36.614C143.908 36.338 144.124 35.942 144.124 35.426C144.124 34.802 143.524 34.28 142.324 33.86C141.832 33.692 141.334 33.512 140.83 33.32C140.338 33.116 139.918 32.84 139.57 32.492C139.222 32.144 139.048 31.73 139.048 31.25C139.048 30.602 139.342 30.038 139.93 29.558C140.518 29.066 141.238 28.82 142.09 28.82C142.942 28.82 143.614 28.97 144.106 29.27C144.61 29.558 144.862 29.864 144.862 30.188C144.862 30.584 144.652 30.782 144.232 30.782C144.052 30.782 143.872 30.716 143.692 30.584C143.128 30.188 142.588 29.99 142.072 29.99C141.556 29.99 141.136 30.11 140.812 30.35C140.488 30.578 140.326 30.848 140.326 31.16C140.326 31.46 140.5 31.718 140.848 31.934C141.196 32.15 141.616 32.348 142.108 32.528C142.612 32.708 143.116 32.912 143.62 33.14C144.124 33.356 144.55 33.662 144.898 34.058C145.246 34.442 145.42 34.892 145.42 35.408ZM155.506 25.472C154.642 25.472 154.024 25.58 153.652 25.796C153.616 26.336 153.598 27.242 153.598 28.514C153.598 29.786 153.61 30.692 153.634 31.232C154.306 31.436 155.086 31.538 155.974 31.538C156.862 31.538 157.642 31.25 158.314 30.674C158.986 30.098 159.322 29.426 159.322 28.658C159.322 27.71 158.986 26.942 158.314 26.354C157.654 25.766 156.718 25.472 155.506 25.472ZM153.634 32.456L153.724 37.262C153.724 37.526 153.652 37.748 153.508 37.928C153.364 38.096 153.19 38.18 152.986 38.18C152.782 38.18 152.608 38.096 152.464 37.928C152.32 37.748 152.248 37.568 152.248 37.388C152.248 37.196 152.26 36.812 152.284 36.236C152.332 34.532 152.356 33.05 152.356 31.79C152.356 30.518 152.35 29.528 152.338 28.82C152.326 28.1 152.308 27.536 152.284 27.128C152.272 26.708 152.266 26.456 152.266 26.372C152.122 26.396 152.026 26.408 151.978 26.408C151.618 26.408 151.438 26.21 151.438 25.814C151.438 25.322 151.912 24.938 152.86 24.662C153.808 24.374 154.654 24.23 155.398 24.23C157.102 24.23 158.404 24.662 159.304 25.526C160.204 26.378 160.654 27.38 160.654 28.532C160.654 29.672 160.204 30.656 159.304 31.484C158.416 32.312 157.276 32.726 155.884 32.726C155.044 32.726 154.294 32.636 153.634 32.456ZM167.793 30.89L170.169 30.98C170.577 30.98 171.051 30.962 171.591 30.926C172.131 30.89 172.431 30.872 172.491 30.872C173.103 30.872 173.409 31.136 173.409 31.664C173.409 33.692 172.911 35.306 171.915 36.506C170.919 37.694 169.611 38.288 167.991 38.288C166.383 38.288 165.021 37.604 163.905 36.236C162.801 34.868 162.249 33.206 162.249 31.25C162.249 29.282 162.819 27.62 163.959 26.264C165.111 24.908 166.557 24.23 168.297 24.23C169.377 24.23 170.349 24.44 171.213 24.86C172.089 25.28 172.527 25.736 172.527 26.228C172.527 26.42 172.467 26.57 172.347 26.678C172.239 26.786 172.089 26.84 171.897 26.84C171.705 26.84 171.489 26.774 171.249 26.642C171.021 26.498 170.799 26.342 170.583 26.174C170.379 25.994 170.073 25.838 169.665 25.706C169.257 25.562 168.801 25.49 168.297 25.49C166.965 25.49 165.867 26.06 165.003 27.2C164.139 28.328 163.707 29.666 163.707 31.214C163.707 32.75 164.121 34.1 164.949 35.264C165.777 36.428 166.827 37.01 168.099 37.01C169.179 37.01 170.073 36.596 170.781 35.768C171.501 34.928 171.873 33.752 171.897 32.24C171.297 32.192 170.721 32.168 170.169 32.168L167.793 32.258C167.217 32.258 166.929 32.036 166.929 31.592C166.929 31.376 167.007 31.208 167.163 31.088C167.319 30.956 167.529 30.89 167.793 30.89ZM176.067 31.304L175.977 25.256C175.977 24.992 176.049 24.77 176.193 24.59C176.337 24.41 176.517 24.32 176.733 24.32C177.117 24.32 177.405 24.482 177.597 24.806C177.705 24.974 178.587 26.552 180.243 29.54C181.911 32.516 183.009 34.43 183.537 35.282V31.304C183.537 29.276 183.519 27.782 183.483 26.822C183.459 25.862 183.447 25.292 183.447 25.112C183.447 24.932 183.519 24.758 183.663 24.59C183.807 24.41 183.981 24.32 184.185 24.32C184.389 24.32 184.563 24.41 184.707 24.59C184.851 24.758 184.923 24.932 184.923 25.112C184.923 25.292 184.917 25.67 184.905 26.246C184.857 27.59 184.833 29.276 184.833 31.304L184.869 37.262C184.869 37.538 184.791 37.76 184.635 37.928C184.491 38.096 184.287 38.18 184.023 38.18C183.759 38.18 183.531 38.018 183.339 37.694C183.279 37.598 183.057 37.208 182.673 36.524C181.509 34.388 180.639 32.84 180.063 31.88C179.499 30.908 178.959 29.954 178.443 29.018C177.927 28.07 177.567 27.434 177.363 27.11V31.304L177.453 37.262C177.453 37.526 177.381 37.748 177.237 37.928C177.093 38.096 176.919 38.18 176.715 38.18C176.511 38.18 176.337 38.096 176.193 37.928C176.049 37.748 175.977 37.526 175.977 37.262L176.067 31.304Z" fill="black"/>
<path d="M19.106 58.95C19.358 58.95 19.544 59.034 19.664 59.202C19.784 59.358 19.844 59.562 19.844 59.814C19.844 60.054 19.76 60.3 19.592 60.552C19.424 60.792 19.214 60.912 18.962 60.912C18.71 60.912 18.518 60.828 18.386 60.66C18.266 60.492 18.206 60.27 18.206 59.994C18.206 59.718 18.29 59.478 18.458 59.274C18.638 59.058 18.854 58.95 19.106 58.95ZM19.61 67.5L19.7 71.28C19.7 71.88 19.472 72.18 19.016 72.18C18.56 72.18 18.332 71.88 18.332 71.28L18.422 67.5L18.332 63.72C18.332 63.12 18.56 62.82 19.016 62.82C19.472 62.82 19.7 63.12 19.7 63.72L19.61 67.5ZM29.9534 66.33L29.8634 69.156C29.8634 69.492 29.8634 69.75 29.8634 69.93C29.8754 70.098 29.9114 70.278 29.9714 70.47C30.0434 70.65 30.1274 70.764 30.2234 70.812C30.3194 70.848 30.4154 70.872 30.5114 70.884C30.6194 70.896 30.6914 70.914 30.7274 70.938C30.7754 70.962 30.7994 71.01 30.7994 71.082C30.7994 71.394 30.6974 71.658 30.4934 71.874C30.3014 72.078 30.0734 72.18 29.8094 72.18C29.3534 72.18 29.0354 72 28.8554 71.64C28.6874 71.28 28.6034 70.752 28.6034 70.056L28.6754 66.744C28.6754 65.928 28.5014 65.268 28.1534 64.764C27.8054 64.26 27.3194 64.008 26.6954 64.008C26.0834 64.008 25.4894 64.35 24.9134 65.034C24.3374 65.718 23.9354 66.492 23.7074 67.356L23.7614 71.262C23.7614 71.874 23.5334 72.18 23.0774 72.18C22.5254 72.18 22.2494 71.76 22.2494 70.92C22.2494 70.068 22.3694 68.88 22.6094 67.356C22.6094 66.852 22.5554 66.156 22.4474 65.268C22.3514 64.38 22.3034 63.834 22.3034 63.63C22.3034 63.414 22.3634 63.228 22.4834 63.072C22.6154 62.904 22.7894 62.82 23.0054 62.82C23.2214 62.82 23.3894 62.904 23.5094 63.072C23.6414 63.228 23.7074 63.408 23.7074 63.612C23.7074 63.816 23.7014 64.068 23.6894 64.368C23.6894 64.656 23.6894 64.902 23.6894 65.106C24.5654 63.582 25.6454 62.82 26.9294 62.82C27.8894 62.82 28.6334 63.162 29.1614 63.846C29.6894 64.53 29.9534 65.358 29.9534 66.33ZM34.585 64.098L34.549 68.364C34.549 69.456 34.591 70.17 34.675 70.506C34.771 70.842 35.011 71.01 35.395 71.01C35.575 71.01 35.791 70.95 36.043 70.83C36.307 70.698 36.481 70.632 36.565 70.632C36.817 70.632 36.943 70.758 36.943 71.01C36.943 71.25 36.721 71.508 36.277 71.784C35.833 72.048 35.395 72.18 34.963 72.18C33.919 72.18 33.397 71.412 33.397 69.876L33.379 64.098C32.983 64.134 32.707 64.152 32.551 64.152C31.951 64.152 31.651 63.954 31.651 63.558C31.651 63.162 31.951 62.964 32.551 62.964C32.599 62.964 32.863 62.976 33.343 63L33.307 60.984C33.307 60.384 33.535 60.084 33.991 60.084C34.447 60.084 34.675 60.384 34.675 60.984L34.621 63.018L36.079 62.946C36.679 62.946 36.979 63.15 36.979 63.558C36.979 63.942 36.679 64.134 36.079 64.134C35.971 64.134 35.473 64.122 34.585 64.098ZM44.4835 70.038C45.0715 69.33 45.3655 68.478 45.3655 67.482C45.3655 66.486 45.0835 65.64 44.5195 64.944C43.9675 64.248 43.2775 63.9 42.4495 63.9C41.6215 63.9 40.9135 64.254 40.3255 64.962C39.7495 65.67 39.4615 66.522 39.4615 67.518C39.4615 68.514 39.7375 69.36 40.2895 70.056C40.8535 70.752 41.5495 71.1 42.3775 71.1C43.2055 71.1 43.9075 70.746 44.4835 70.038ZM42.4135 62.73C43.6495 62.73 44.6635 63.192 45.4555 64.116C46.2475 65.028 46.6435 66.15 46.6435 67.482C46.6435 68.814 46.2415 69.948 45.4375 70.884C44.6335 71.808 43.6195 72.27 42.3955 72.27C41.1715 72.27 40.1635 71.814 39.3715 70.902C38.5795 69.978 38.1835 68.85 38.1835 67.518C38.1835 66.186 38.5795 65.058 39.3715 64.134C40.1755 63.198 41.1895 62.73 42.4135 62.73ZM55.046 64.098L55.01 68.364C55.01 69.456 55.052 70.17 55.136 70.506C55.232 70.842 55.472 71.01 55.856 71.01C56.036 71.01 56.252 70.95 56.504 70.83C56.768 70.698 56.942 70.632 57.026 70.632C57.278 70.632 57.404 70.758 57.404 71.01C57.404 71.25 57.182 71.508 56.738 71.784C56.294 72.048 55.856 72.18 55.424 72.18C54.38 72.18 53.858 71.412 53.858 69.876L53.84 64.098C53.444 64.134 53.168 64.152 53.012 64.152C52.412 64.152 52.112 63.954 52.112 63.558C52.112 63.162 52.412 62.964 53.012 62.964C53.06 62.964 53.324 62.976 53.804 63L53.768 60.984C53.768 60.384 53.996 60.084 54.452 60.084C54.908 60.084 55.136 60.384 55.136 60.984L55.082 63.018L56.54 62.946C57.14 62.946 57.44 63.15 57.44 63.558C57.44 63.942 57.14 64.134 56.54 64.134C56.432 64.134 55.934 64.122 55.046 64.098ZM66.7084 66.33L66.6184 69.156C66.6184 69.492 66.6184 69.75 66.6184 69.93C66.6304 70.098 66.6664 70.278 66.7264 70.47C66.7984 70.65 66.8824 70.764 66.9784 70.812C67.0744 70.848 67.1704 70.872 67.2664 70.884C67.3744 70.896 67.4464 70.914 67.4824 70.938C67.5304 70.962 67.5544 71.01 67.5544 71.082C67.5544 71.394 67.4524 71.658 67.2484 71.874C67.0564 72.078 66.8284 72.18 66.5644 72.18C66.1084 72.18 65.7904 72 65.6104 71.64C65.4424 71.28 65.3584 70.752 65.3584 70.056L65.4304 66.744C65.4304 65.928 65.2564 65.268 64.9084 64.764C64.5604 64.26 64.0744 64.008 63.4504 64.008C62.8384 64.008 62.2444 64.35 61.6684 65.034C61.0924 65.718 60.6904 66.492 60.4624 67.356L60.5164 71.262C60.5164 71.874 60.2884 72.18 59.8324 72.18C59.2804 72.18 59.0044 71.76 59.0044 70.92C59.0044 70.068 59.1244 68.88 59.3644 67.356C59.3644 66.54 59.3104 65.004 59.2024 62.748C59.0944 60.48 59.0404 59.256 59.0404 59.076C59.0404 58.896 59.1004 58.728 59.2204 58.572C59.3524 58.404 59.5264 58.32 59.7424 58.32C59.9584 58.32 60.1264 58.404 60.2464 58.572C60.3784 58.728 60.4444 58.944 60.4444 59.22V65.106C61.3204 63.582 62.4004 62.82 63.6844 62.82C64.6444 62.82 65.3884 63.162 65.9164 63.846C66.4444 64.53 66.7084 65.358 66.7084 66.33ZM70.3111 58.95C70.5631 58.95 70.7491 59.034 70.8691 59.202C70.9891 59.358 71.0491 59.562 71.0491 59.814C71.0491 60.054 70.9651 60.3 70.7971 60.552C70.6291 60.792 70.4191 60.912 70.1671 60.912C69.9151 60.912 69.7231 60.828 69.5911 60.66C69.4711 60.492 69.4111 60.27 69.4111 59.994C69.4111 59.718 69.4951 59.478 69.6631 59.274C69.8431 59.058 70.0591 58.95 70.3111 58.95ZM70.8151 67.5L70.9051 71.28C70.9051 71.88 70.6771 72.18 70.2211 72.18C69.7651 72.18 69.5371 71.88 69.5371 71.28L69.6271 67.5L69.5371 63.72C69.5371 63.12 69.7651 62.82 70.2211 62.82C70.6771 62.82 70.9051 63.12 70.9051 63.72L70.8151 67.5ZM79.7185 69.408C79.7185 70.224 79.3825 70.89 78.7105 71.406C78.0505 71.922 77.2525 72.18 76.3165 72.18C75.3925 72.18 74.5885 71.97 73.9045 71.55C73.2205 71.118 72.8785 70.692 72.8785 70.272C72.8785 70.092 72.9325 69.948 73.0405 69.84C73.1485 69.72 73.2685 69.66 73.4005 69.66C73.5445 69.66 73.6585 69.69 73.7425 69.75C73.8265 69.798 73.9405 69.9 74.0845 70.056C74.2285 70.212 74.3545 70.344 74.4625 70.452C74.5825 70.56 74.8165 70.68 75.1645 70.812C75.5245 70.944 75.8545 71.01 76.1545 71.01C76.8145 71.01 77.3545 70.878 77.7745 70.614C78.2065 70.338 78.4225 69.942 78.4225 69.426C78.4225 68.802 77.8225 68.28 76.6225 67.86C76.1305 67.692 75.6325 67.512 75.1285 67.32C74.6365 67.116 74.2165 66.84 73.8685 66.492C73.5205 66.144 73.3465 65.73 73.3465 65.25C73.3465 64.602 73.6405 64.038 74.2285 63.558C74.8165 63.066 75.5365 62.82 76.3885 62.82C77.2405 62.82 77.9125 62.97 78.4045 63.27C78.9085 63.558 79.1605 63.864 79.1605 64.188C79.1605 64.584 78.9505 64.782 78.5305 64.782C78.3505 64.782 78.1705 64.716 77.9905 64.584C77.4265 64.188 76.8865 63.99 76.3705 63.99C75.8545 63.99 75.4345 64.11 75.1105 64.35C74.7865 64.578 74.6245 64.848 74.6245 65.16C74.6245 65.46 74.7985 65.718 75.1465 65.934C75.4945 66.15 75.9145 66.348 76.4065 66.528C76.9105 66.708 77.4145 66.912 77.9185 67.14C78.4225 67.356 78.8485 67.662 79.1965 68.058C79.5445 68.442 79.7185 68.892 79.7185 69.408ZM93.1169 67.644C93.1169 68.544 93.1829 69.282 93.3149 69.858C93.4469 70.422 93.6029 70.74 93.7829 70.812C93.8549 70.848 93.9389 70.872 94.0349 70.884C94.1429 70.896 94.2149 70.914 94.2509 70.938C94.2989 70.962 94.3229 71.01 94.3229 71.082C94.3229 71.406 94.2329 71.67 94.0529 71.874C93.8849 72.078 93.6269 72.18 93.2789 72.18C92.9309 72.18 92.6609 71.958 92.4689 71.514C92.2769 71.07 92.1809 70.5 92.1809 69.804C91.8809 70.476 91.4369 71.04 90.8489 71.496C90.2729 71.952 89.6189 72.18 88.8869 72.18C88.1669 72.18 87.5429 71.94 87.0149 71.46C86.0549 70.584 85.5749 69.33 85.5749 67.698C85.5749 66.39 85.9529 65.25 86.7089 64.278C87.4649 63.306 88.4369 62.82 89.6249 62.82C90.5249 62.82 91.3049 63.126 91.9649 63.738C91.9649 63.126 92.1929 62.82 92.6489 62.82C93.2009 62.82 93.4769 63.246 93.4769 64.098C93.4769 64.938 93.3569 66.12 93.1169 67.644ZM92.0729 67.806L91.9829 65.034C91.2629 64.338 90.5069 63.99 89.7149 63.99C88.9349 63.99 88.2629 64.344 87.6989 65.052C87.1349 65.76 86.8529 66.612 86.8529 67.608C86.8529 68.592 87.0329 69.408 87.3929 70.056C87.7649 70.692 88.2869 71.01 88.9589 71.01C89.6309 71.01 90.2429 70.71 90.7949 70.11C91.3469 69.51 91.7729 68.742 92.0729 67.806ZM103.922 66.33L103.832 69.156C103.832 69.492 103.832 69.75 103.832 69.93C103.844 70.098 103.88 70.278 103.94 70.47C104.012 70.65 104.096 70.764 104.192 70.812C104.288 70.848 104.384 70.872 104.48 70.884C104.588 70.896 104.66 70.914 104.696 70.938C104.744 70.962 104.768 71.01 104.768 71.082C104.768 71.394 104.666 71.658 104.462 71.874C104.27 72.078 104.042 72.18 103.778 72.18C103.322 72.18 103.004 72 102.824 71.64C102.656 71.28 102.572 70.752 102.572 70.056L102.644 66.744C102.644 65.928 102.47 65.268 102.122 64.764C101.774 64.26 101.288 64.008 100.664 64.008C100.052 64.008 99.4581 64.35 98.8821 65.034C98.3061 65.718 97.9041 66.492 97.6761 67.356L97.7301 71.262C97.7301 71.874 97.5021 72.18 97.0461 72.18C96.4941 72.18 96.2181 71.76 96.2181 70.92C96.2181 70.068 96.3381 68.88 96.5781 67.356C96.5781 66.852 96.5241 66.156 96.4161 65.268C96.3201 64.38 96.2721 63.834 96.2721 63.63C96.2721 63.414 96.3321 63.228 96.4521 63.072C96.5841 62.904 96.7581 62.82 96.9741 62.82C97.1901 62.82 97.3581 62.904 97.4781 63.072C97.6101 63.228 97.6761 63.408 97.6761 63.612C97.6761 63.816 97.6701 64.068 97.6581 64.368C97.6581 64.656 97.6581 64.902 97.6581 65.106C98.5341 63.582 99.6141 62.82 100.898 62.82C101.858 62.82 102.602 63.162 103.13 63.846C103.658 64.53 103.922 65.358 103.922 66.33ZM107.524 58.95C107.776 58.95 107.962 59.034 108.082 59.202C108.202 59.358 108.262 59.562 108.262 59.814C108.262 60.054 108.178 60.3 108.01 60.552C107.842 60.792 107.632 60.912 107.38 60.912C107.128 60.912 106.936 60.828 106.804 60.66C106.684 60.492 106.624 60.27 106.624 59.994C106.624 59.718 106.708 59.478 106.876 59.274C107.056 59.058 107.272 58.95 107.524 58.95ZM108.028 67.5L108.118 71.28C108.118 71.88 107.89 72.18 107.434 72.18C106.978 72.18 106.75 71.88 106.75 71.28L106.84 67.5L106.75 63.72C106.75 63.12 106.978 62.82 107.434 62.82C107.89 62.82 108.118 63.12 108.118 63.72L108.028 67.5ZM123.735 66.33L123.645 69.156C123.645 69.492 123.645 69.75 123.645 69.93C123.657 70.098 123.693 70.278 123.753 70.47C123.825 70.65 123.909 70.764 124.005 70.812C124.101 70.848 124.197 70.872 124.293 70.884C124.401 70.896 124.473 70.914 124.509 70.938C124.557 70.962 124.581 71.01 124.581 71.082C124.581 71.394 124.479 71.658 124.275 71.874C124.083 72.078 123.855 72.18 123.591 72.18C123.135 72.18 122.817 72 122.637 71.64C122.469 71.28 122.385 70.752 122.385 70.056L122.457 66.744C122.457 65.928 122.295 65.268 121.971 64.764C121.659 64.26 121.215 64.008 120.639 64.008C120.075 64.008 119.523 64.35 118.983 65.034C118.443 65.718 118.065 66.492 117.849 67.356L117.903 71.262C117.903 71.874 117.675 72.18 117.219 72.18C116.667 72.18 116.391 71.76 116.391 70.92C116.391 70.068 116.511 68.88 116.751 67.356C116.751 65.124 116.139 64.008 114.915 64.008C114.351 64.008 113.799 64.35 113.259 65.034C112.719 65.718 112.341 66.492 112.125 67.356L112.179 71.262C112.179 71.874 111.951 72.18 111.495 72.18C110.943 72.18 110.667 71.76 110.667 70.92C110.667 70.068 110.787 68.88 111.027 67.356C111.027 66.852 110.973 66.156 110.865 65.268C110.769 64.38 110.721 63.834 110.721 63.63C110.721 63.414 110.781 63.228 110.901 63.072C111.033 62.904 111.207 62.82 111.423 62.82C111.639 62.82 111.807 62.904 111.927 63.072C112.059 63.228 112.125 63.408 112.125 63.612C112.125 63.816 112.119 64.068 112.107 64.368C112.107 64.656 112.107 64.902 112.107 65.106C112.923 63.582 113.943 62.82 115.167 62.82C115.875 62.82 116.451 63.03 116.895 63.45C117.351 63.858 117.663 64.41 117.831 65.106C118.647 63.582 119.667 62.82 120.891 62.82C121.791 62.82 122.487 63.162 122.979 63.846C123.483 64.53 123.735 65.358 123.735 66.33ZM133.635 67.644C133.635 68.544 133.701 69.282 133.833 69.858C133.965 70.422 134.121 70.74 134.301 70.812C134.373 70.848 134.457 70.872 134.553 70.884C134.661 70.896 134.733 70.914 134.769 70.938C134.817 70.962 134.841 71.01 134.841 71.082C134.841 71.406 134.751 71.67 134.571 71.874C134.403 72.078 134.145 72.18 133.797 72.18C133.449 72.18 133.179 71.958 132.987 71.514C132.795 71.07 132.699 70.5 132.699 69.804C132.399 70.476 131.955 71.04 131.367 71.496C130.791 71.952 130.137 72.18 129.405 72.18C128.685 72.18 128.061 71.94 127.533 71.46C126.573 70.584 126.093 69.33 126.093 67.698C126.093 66.39 126.471 65.25 127.227 64.278C127.983 63.306 128.955 62.82 130.143 62.82C131.043 62.82 131.823 63.126 132.483 63.738C132.483 63.126 132.711 62.82 133.167 62.82C133.719 62.82 133.995 63.246 133.995 64.098C133.995 64.938 133.875 66.12 133.635 67.644ZM132.591 67.806L132.501 65.034C131.781 64.338 131.025 63.99 130.233 63.99C129.453 63.99 128.781 64.344 128.217 65.052C127.653 65.76 127.371 66.612 127.371 67.608C127.371 68.592 127.551 69.408 127.911 70.056C128.283 70.692 128.805 71.01 129.477 71.01C130.149 71.01 130.761 70.71 131.313 70.11C131.865 69.51 132.291 68.742 132.591 67.806ZM138.806 64.098L138.77 68.364C138.77 69.456 138.812 70.17 138.896 70.506C138.992 70.842 139.232 71.01 139.616 71.01C139.796 71.01 140.012 70.95 140.264 70.83C140.528 70.698 140.702 70.632 140.786 70.632C141.038 70.632 141.164 70.758 141.164 71.01C141.164 71.25 140.942 71.508 140.498 71.784C140.054 72.048 139.616 72.18 139.184 72.18C138.14 72.18 137.618 71.412 137.618 69.876L137.6 64.098C137.204 64.134 136.928 64.152 136.772 64.152C136.172 64.152 135.872 63.954 135.872 63.558C135.872 63.162 136.172 62.964 136.772 62.964C136.82 62.964 137.084 62.976 137.564 63L137.528 60.984C137.528 60.384 137.756 60.084 138.212 60.084C138.668 60.084 138.896 60.384 138.896 60.984L138.842 63.018L140.3 62.946C140.9 62.946 141.2 63.15 141.2 63.558C141.2 63.942 140.9 64.134 140.3 64.134C140.192 64.134 139.694 64.122 138.806 64.098ZM146.243 67.158C147.059 67.158 147.707 67.02 148.187 66.744C148.679 66.468 148.925 66.096 148.925 65.628C148.925 65.16 148.763 64.758 148.439 64.422C148.127 64.074 147.677 63.9 147.089 63.9C146.297 63.9 145.631 64.2 145.091 64.8C144.551 65.388 144.203 66.078 144.047 66.87C144.707 67.062 145.439 67.158 146.243 67.158ZM146.927 62.73C147.899 62.73 148.685 63 149.285 63.54C149.897 64.08 150.203 64.782 150.203 65.646C150.203 66.51 149.825 67.17 149.069 67.626C148.325 68.07 147.407 68.292 146.315 68.292C145.691 68.292 144.929 68.202 144.029 68.022C144.101 68.862 144.413 69.588 144.965 70.2C145.529 70.8 146.153 71.1 146.837 71.1C147.245 71.1 147.623 71.046 147.971 70.938C148.319 70.818 148.583 70.692 148.763 70.56C149.243 70.188 149.555 70.002 149.699 70.002C149.855 70.002 149.975 70.05 150.059 70.146C150.155 70.23 150.203 70.338 150.203 70.47C150.203 70.806 149.855 71.19 149.159 71.622C148.475 72.054 147.731 72.27 146.927 72.27C145.679 72.27 144.689 71.832 143.957 70.956C143.225 70.08 142.829 69.024 142.769 67.788C142.133 67.596 141.815 67.284 141.815 66.852C141.815 66.672 141.863 66.534 141.959 66.438C142.067 66.33 142.193 66.276 142.337 66.276C142.481 66.276 142.661 66.33 142.877 66.438C143.141 65.358 143.639 64.47 144.371 63.774C145.115 63.078 145.967 62.73 146.927 62.73ZM158.718 67.896V65.034C157.998 64.338 157.146 63.99 156.162 63.99C155.394 63.99 154.716 64.344 154.128 65.052C153.552 65.76 153.264 66.594 153.264 67.554C153.264 68.502 153.474 69.318 153.894 70.002C154.314 70.674 154.884 71.01 155.604 71.01C156.864 71.01 157.902 69.972 158.718 67.896ZM160.626 70.848C160.938 70.848 161.094 70.938 161.094 71.118C161.094 71.346 161.01 71.58 160.842 71.82C160.686 72.06 160.434 72.18 160.086 72.18C159.738 72.18 159.462 71.988 159.258 71.604C159.066 71.22 158.928 70.608 158.844 69.768C157.968 71.376 156.858 72.18 155.514 72.18C154.734 72.18 154.062 71.928 153.498 71.424C152.934 70.92 152.532 70.338 152.292 69.678C152.052 69.018 151.932 68.358 151.932 67.698C151.932 66.39 152.328 65.25 153.12 64.278C153.912 63.306 154.926 62.82 156.162 62.82C157.062 62.82 157.914 63.114 158.718 63.702C158.742 62.034 158.754 60.816 158.754 60.048C158.754 59.268 158.808 58.788 158.916 58.608C159.036 58.416 159.222 58.32 159.474 58.32C159.738 58.32 159.948 58.428 160.104 58.644C160.272 58.848 160.356 59.154 160.356 59.562C160.356 59.97 160.332 60.474 160.284 61.074C160.236 61.662 160.164 62.448 160.068 63.432C159.972 64.404 159.894 65.286 159.834 66.078C159.834 67.542 159.888 68.688 159.996 69.516C160.104 70.344 160.314 70.788 160.626 70.848ZM172.527 64.89L174.903 64.98C175.311 64.98 175.785 64.962 176.325 64.926C176.865 64.89 177.165 64.872 177.225 64.872C177.837 64.872 178.143 65.136 178.143 65.664C178.143 67.692 177.645 69.306 176.649 70.506C175.653 71.694 174.345 72.288 172.725 72.288C171.117 72.288 169.755 71.604 168.639 70.236C167.535 68.868 166.983 67.206 166.983 65.25C166.983 63.282 167.553 61.62 168.693 60.264C169.845 58.908 171.291 58.23 173.031 58.23C174.111 58.23 175.083 58.44 175.947 58.86C176.823 59.28 177.261 59.736 177.261 60.228C177.261 60.42 177.201 60.57 177.081 60.678C176.973 60.786 176.823 60.84 176.631 60.84C176.439 60.84 176.223 60.774 175.983 60.642C175.755 60.498 175.533 60.342 175.317 60.174C175.113 59.994 174.807 59.838 174.399 59.706C173.991 59.562 173.535 59.49 173.031 59.49C171.699 59.49 170.601 60.06 169.737 61.2C168.873 62.328 168.441 63.666 168.441 65.214C168.441 66.75 168.855 68.1 169.683 69.264C170.511 70.428 171.561 71.01 172.833 71.01C173.913 71.01 174.807 70.596 175.515 69.768C176.235 68.928 176.607 67.752 176.631 66.24C176.031 66.192 175.455 66.168 174.903 66.168L172.527 66.258C171.951 66.258 171.663 66.036 171.663 65.592C171.663 65.376 171.741 65.208 171.897 65.088C172.053 64.956 172.263 64.89 172.527 64.89ZM183.627 70.812L185.211 70.722C185.487 70.722 185.703 70.788 185.859 70.92C186.027 71.04 186.111 71.202 186.111 71.406C186.111 71.61 186.027 71.778 185.859 71.91C185.691 72.042 185.475 72.108 185.211 72.108L182.889 72L180.513 72.09C179.913 72.09 179.613 71.862 179.613 71.406C179.613 70.95 179.913 70.722 180.513 70.722C180.645 70.722 181.191 70.752 182.151 70.812C182.211 68.112 182.241 66.264 182.241 65.268C182.241 64.26 182.211 62.406 182.151 59.706C181.095 59.754 180.549 59.778 180.513 59.778C179.937 59.778 179.649 59.556 179.649 59.112C179.649 58.896 179.727 58.728 179.883 58.608C180.039 58.476 180.249 58.41 180.513 58.41L182.889 58.5C183.297 58.5 183.771 58.482 184.311 58.446C184.851 58.41 185.199 58.392 185.355 58.392C185.523 58.392 185.691 58.464 185.859 58.608C186.039 58.74 186.129 58.908 186.129 59.112C186.129 59.316 186.045 59.484 185.877 59.616C185.709 59.736 185.529 59.796 185.337 59.796C185.157 59.796 184.587 59.766 183.627 59.706C183.567 62.466 183.537 64.332 183.537 65.304C183.537 66.276 183.567 68.112 183.627 70.812ZM191.377 64.206L194.419 64.116C194.695 64.116 194.917 64.182 195.085 64.314C195.253 64.446 195.337 64.614 195.337 64.818C195.337 65.022 195.253 65.184 195.085 65.304C194.917 65.424 194.695 65.484 194.419 65.484L191.377 65.394C191.041 65.394 190.621 65.406 190.117 65.43L190.207 71.136C190.207 71.832 189.961 72.18 189.469 72.18C188.977 72.18 188.731 71.832 188.731 71.136C188.731 70.668 188.743 69.846 188.767 68.67C188.803 67.494 188.821 66.426 188.821 65.466C188.713 65.478 188.593 65.484 188.461 65.484C187.885 65.484 187.597 65.262 187.597 64.818C187.597 64.614 187.675 64.446 187.831 64.314C187.987 64.182 188.161 64.116 188.353 64.116C188.557 64.116 188.713 64.122 188.821 64.134C188.797 61.722 188.755 60.264 188.695 59.76C188.551 59.556 188.479 59.334 188.479 59.094C188.479 58.638 188.815 58.41 189.487 58.41L192.907 58.5L195.535 58.41C196.183 58.41 196.507 58.638 196.507 59.094C196.507 59.55 196.183 59.778 195.535 59.778L192.907 59.688C191.539 59.688 190.639 59.712 190.207 59.76C190.147 61.332 190.117 62.802 190.117 64.17C190.645 64.194 191.065 64.206 191.377 64.206Z" fill="black"/>
<defs>
<filter id="filter0_d" x="48.5" y="16" width="56.5" height="65" filterUnits="userSpaceOnUse" color-interpolation-filters="sRGB">
<feFlood flood-opacity="0" result="BackgroundImageFix"/>
<feColorMatrix in="SourceAlpha" type="matrix" values="0 0 0 0 0 0 0 0 0 0 0 0 0 0 0 0 0 0 127 0"/>
<feOffset/>
<feGaussianBlur stdDeviation="2"/>
<feColorMatrix type="matrix" values="0 0 0 0 1 0 0 0 0 1 0 0 0 0 1 0 0 0 1 0"/>
<feBlend mode="normal" in2="BackgroundImageFix" result="effect1_dropShadow"/>
<feBlend mode="normal" in="SourceGraphic" in2="effect1_dropShadow" result="shape"/>
</filter>
</defs>
</svg>
