<svg width="279" height="72" viewBox="0 0 279 72" fill="none" xmlns="http://www.w3.org/2000/svg">
<path d="M115.312 20.736C120.347 20.736 124.528 22.656 127.856 26.496C128.283 26.9653 128.496 27.52 128.496 28.16C128.496 29.0987 128.027 29.888 127.088 30.528C126.661 30.8267 126.171 30.976 125.616 30.976C124.635 30.976 123.803 30.592 123.12 29.824C122.053 28.672 120.88 27.84 119.6 27.328C118.363 26.7733 116.933 26.496 115.312 26.496C112.027 26.496 109.36 27.6053 107.312 29.824C105.264 32 104.24 34.9013 104.24 38.528C104.24 40.832 104.709 42.9013 105.648 44.736C106.629 46.528 107.973 47.936 109.68 48.96C111.429 49.984 113.413 50.496 115.632 50.496C118.533 50.496 120.88 49.7493 122.672 48.256C123.483 47.6587 124.272 47.36 125.04 47.36C125.637 47.36 126.192 47.552 126.704 47.936C127.515 48.6187 127.92 49.3867 127.92 50.24C127.92 50.88 127.664 51.456 127.152 51.968C124.08 54.8267 120.24 56.256 115.632 56.256C112.261 56.256 109.232 55.488 106.544 53.952C103.856 52.416 101.744 50.304 100.208 47.616C98.7147 44.8853 97.968 41.856 97.968 38.528C97.968 35.1147 98.6933 32.064 100.144 29.376C101.637 26.6453 103.707 24.5333 106.352 23.04C108.997 21.504 111.984 20.736 115.312 20.736ZM154.326 20.672C157.27 20.672 159.915 21.312 162.262 22.592C164.608 23.872 166.443 25.7493 167.766 28.224C169.088 30.656 169.75 33.6 169.75 37.056V52.8C169.75 53.7387 169.43 54.528 168.79 55.168C168.192 55.7653 167.424 56.064 166.486 56.064C165.547 56.064 164.758 55.7653 164.118 55.168C163.52 54.528 163.222 53.7387 163.222 52.8V37.056C163.222 33.6 162.283 30.9973 160.406 29.248C158.571 27.456 156.118 26.56 153.046 26.56C151.254 26.56 149.611 26.9227 148.118 27.648C146.667 28.3733 145.515 29.3547 144.662 30.592C143.851 31.8293 143.446 33.216 143.446 34.752V52.8C143.446 53.7387 143.147 54.528 142.55 55.168C141.952 55.7653 141.163 56.064 140.182 56.064C139.243 56.064 138.454 55.7653 137.814 55.168C137.216 54.528 136.918 53.7387 136.918 52.8V9.28C136.918 8.29867 137.216 7.50933 137.814 6.912C138.454 6.31467 139.243 6.016 140.182 6.016C141.163 6.016 141.952 6.31467 142.55 6.912C143.147 7.50933 143.446 8.29867 143.446 9.28V24.96C144.811 23.5947 146.432 22.5493 148.31 21.824C150.187 21.056 152.192 20.672 154.326 20.672ZM210.749 37.952C210.749 38.7627 210.472 39.4453 209.917 40C209.362 40.512 208.658 40.768 207.805 40.768H183.485C183.954 43.7547 185.298 46.1653 187.517 48C189.778 49.8347 192.53 50.752 195.773 50.752C197.053 50.752 198.376 50.5173 199.741 50.048C201.149 49.5787 202.301 49.0027 203.197 48.32C203.794 47.8507 204.498 47.616 205.309 47.616C206.12 47.616 206.76 47.8293 207.229 48.256C207.997 48.896 208.381 49.6213 208.381 50.432C208.381 51.2 208.04 51.84 207.357 52.352C205.906 53.504 204.093 54.4427 201.917 55.168C199.784 55.8933 197.736 56.256 195.773 56.256C192.274 56.256 189.138 55.5093 186.365 54.016C183.592 52.48 181.416 50.368 179.837 47.68C178.301 44.992 177.533 41.9413 177.533 38.528C177.533 35.1147 178.258 32.064 179.709 29.376C181.202 26.6453 183.25 24.5333 185.853 23.04C188.498 21.504 191.485 20.736 194.813 20.736C198.098 20.736 200.936 21.4613 203.325 22.912C205.714 24.3627 207.549 26.3893 208.829 28.992C210.109 31.5947 210.749 34.5813 210.749 37.952ZM194.813 26.24C191.698 26.24 189.16 27.0933 187.197 28.8C185.277 30.5067 184.061 32.7893 183.549 35.648H204.861C204.477 32.7893 203.41 30.5067 201.661 28.8C199.912 27.0933 197.629 26.24 194.813 26.24ZM230.083 20.736C232.856 20.736 235.331 21.184 237.507 22.08C239.726 22.976 241.475 24.2133 242.755 25.792C243.31 26.4747 243.587 27.1573 243.587 27.84C243.587 28.5653 243.224 29.2267 242.499 29.824C242.03 30.1653 241.432 30.336 240.707 30.336C239.598 30.336 238.595 29.9307 237.699 29.12C236.632 28.1387 235.502 27.456 234.307 27.072C233.112 26.6453 231.662 26.432 229.955 26.432C227.992 26.432 226.371 26.7733 225.091 27.456C223.854 28.096 223.235 29.0133 223.235 30.208C223.235 31.0613 223.448 31.7867 223.875 32.384C224.302 32.9387 225.112 33.472 226.307 33.984C227.502 34.4533 229.23 34.9227 231.491 35.392C236.142 36.3307 239.427 37.632 241.347 39.296C243.31 40.96 244.291 43.1147 244.291 45.76C244.291 47.7227 243.758 49.5147 242.691 51.136C241.624 52.7147 240.046 53.9733 237.955 54.912C235.907 55.808 233.432 56.256 230.531 56.256C227.63 56.256 224.899 55.808 222.339 54.912C219.779 54.016 217.774 52.8427 216.323 51.392C215.768 50.8373 215.491 50.176 215.491 49.408C215.491 48.384 215.918 47.552 216.771 46.912C217.582 46.3147 218.328 46.016 219.011 46.016C219.864 46.016 220.675 46.4 221.443 47.168C222.254 48.064 223.47 48.8533 225.091 49.536C226.712 50.176 228.44 50.496 230.275 50.496C232.707 50.496 234.584 50.0907 235.907 49.28C237.272 48.4693 237.955 47.3813 237.955 46.016C237.955 44.6933 237.294 43.6053 235.971 42.752C234.648 41.856 232.408 41.1093 229.251 40.512C221.059 38.9333 216.963 35.5627 216.963 30.4C216.963 28.3093 217.582 26.5387 218.819 25.088C220.056 23.6373 221.678 22.5493 223.683 21.824C225.688 21.0987 227.822 20.736 230.083 20.736ZM263.553 20.736C266.326 20.736 268.801 21.184 270.977 22.08C273.196 22.976 274.945 24.2133 276.225 25.792C276.78 26.4747 277.057 27.1573 277.057 27.84C277.057 28.5653 276.694 29.2267 275.969 29.824C275.5 30.1653 274.902 30.336 274.177 30.336C273.068 30.336 272.065 29.9307 271.169 29.12C270.102 28.1387 268.972 27.456 267.777 27.072C266.582 26.6453 265.132 26.432 263.425 26.432C261.462 26.432 259.841 26.7733 258.561 27.456C257.324 28.096 256.705 29.0133 256.705 30.208C256.705 31.0613 256.918 31.7867 257.345 32.384C257.772 32.9387 258.582 33.472 259.777 33.984C260.972 34.4533 262.7 34.9227 264.961 35.392C269.612 36.3307 272.897 37.632 274.817 39.296C276.78 40.96 277.761 43.1147 277.761 45.76C277.761 47.7227 277.228 49.5147 276.161 51.136C275.094 52.7147 273.516 53.9733 271.425 54.912C269.377 55.808 266.902 56.256 264.001 56.256C261.1 56.256 258.369 55.808 255.809 54.912C253.249 54.016 251.244 52.8427 249.793 51.392C249.238 50.8373 248.961 50.176 248.961 49.408C248.961 48.384 249.388 47.552 250.241 46.912C251.052 46.3147 251.798 46.016 252.481 46.016C253.334 46.016 254.145 46.4 254.913 47.168C255.724 48.064 256.94 48.8533 258.561 49.536C260.182 50.176 261.91 50.496 263.745 50.496C266.177 50.496 268.054 50.0907 269.377 49.28C270.742 48.4693 271.425 47.3813 271.425 46.016C271.425 44.6933 270.764 43.6053 269.441 42.752C268.118 41.856 265.878 41.1093 262.721 40.512C254.529 38.9333 250.433 35.5627 250.433 30.4C250.433 28.3093 251.052 26.5387 252.289 25.088C253.526 23.6373 255.148 22.5493 257.153 21.824C259.158 21.0987 261.292 20.736 263.553 20.736Z" fill="#2276E4"/>
<path d="M91.512 21.312C92.8347 21.824 93.496 22.656 93.496 23.808C93.496 24.2347 93.368 24.7467 93.112 25.344L73.528 69.376C73.016 70.6987 72.184 71.36 71.032 71.36C70.6053 71.36 70.0933 71.232 69.496 70.976C68.216 70.4213 67.576 69.5893 67.576 68.48C67.576 67.968 67.704 67.456 67.96 66.944L74.36 52.544L59.96 25.216C59.7467 24.832 59.64 24.384 59.64 23.872C59.64 23.3173 59.8107 22.8053 60.152 22.336C60.4933 21.8667 60.9413 21.504 61.496 21.248C61.88 21.0773 62.3067 20.992 62.776 20.992C63.9707 20.992 64.8667 21.5893 65.464 22.784L77.176 46.08L87.48 22.848C88.0347 21.6107 88.8667 20.992 89.976 20.992C90.5307 20.992 91.0427 21.0987 91.512 21.312Z" fill="#2276E4"/>
<path d="M53.864 11.904C51.4747 11.904 49.5547 12.6933 48.104 14.272C46.6533 15.8507 45.928 17.9413 45.928 20.544V22.272H52.456C53.352 22.272 54.0773 22.528 54.632 23.04C55.1867 23.552 55.464 24.2347 55.464 25.088C55.464 25.856 55.1867 26.496 54.632 27.008C54.0773 27.52 53.352 27.776 52.456 27.776H45.928V52.736C45.928 53.7173 45.6293 54.5067 45.032 55.104C44.4347 55.7013 43.6027 56 42.536 56C41.6827 56 40.936 55.7013 40.296 55.104C39.6987 54.5067 39.4 53.7173 39.4 52.736V27.776H36.648C35.752 27.776 35.0267 27.52 34.472 27.008C33.9173 26.496 33.64 25.856 33.64 25.088C33.64 24.2347 33.9173 23.552 34.472 23.04C35.0267 22.528 35.752 22.272 36.648 22.272H39.4V21.184C39.4 18.1547 39.9973 15.5093 41.192 13.248C42.4293 10.944 44.136 9.17333 46.312 7.936C48.5307 6.656 51.048 6.016 53.864 6.016C54.8027 6.016 55.5707 6.29333 56.168 6.848C56.808 7.40266 57.128 8.10666 57.128 8.96C57.128 9.81333 56.808 10.5173 56.168 11.072C55.5707 11.6267 54.8027 11.904 53.864 11.904Z" fill="#2276E4"/>
<path d="M15.0541 13C10.8813 13 7.90075 18.3922 13.2658 21.6275C8.03546 27.4504 0.038208 35.5 0.038208 42.1176C0.038208 48 4.5 56.5 15 56.5C18.5 56.5 21.6115 54.5196 25.1882 50.7451C25.1882 60.9902 19.8232 63.1471 15.6504 63.1471C11.4776 63.1471 8.49698 61.5294 5.5164 58.8333C5.5164 58.8333 3.72806 57.7549 1.93971 58.8333C0.151369 59.9118 -0.444746 60.451 1.3436 62.0686C1.3436 62.0686 7.30475 68 15.6504 68C23.996 68 30.9893 60.9902 30.9893 55.0588V42.1176C31.2588 35.3974 26.3434 31.2832 23.9959 28.098L17.4386 41.5784C17.4386 41.5784 16.2464 43.1961 14.458 42.1176C12.6697 41.0392 13.2658 40.5 13.2658 40.5L21.0153 24.8627L17.4386 21.6275C22.2075 18.3922 19.2269 13 15.0541 13Z" fill="#2276E4"/>
</svg>
