<svg width="279" height="68" viewBox="0 0 279 68" fill="none" xmlns="http://www.w3.org/2000/svg">
<path d="M115.274 16.736C120.308 16.736 124.49 18.656 127.818 22.496C128.244 22.9653 128.458 23.52 128.458 24.16C128.458 25.0987 127.988 25.888 127.05 26.528C126.623 26.8267 126.132 26.976 125.578 26.976C124.596 26.976 123.764 26.592 123.082 25.824C122.015 24.672 120.842 23.84 119.562 23.328C118.324 22.7733 116.895 22.496 115.274 22.496C111.988 22.496 109.322 23.6053 107.274 25.824C105.226 28 104.202 30.9013 104.202 34.528C104.202 36.832 104.671 38.9013 105.61 40.736C106.591 42.528 107.935 43.936 109.642 44.96C111.391 45.984 113.375 46.496 115.594 46.496C118.495 46.496 120.842 45.7493 122.634 44.256C123.444 43.6587 124.234 43.36 125.002 43.36C125.599 43.36 126.154 43.552 126.666 43.936C127.476 44.6187 127.882 45.3867 127.882 46.24C127.882 46.88 127.626 47.456 127.114 47.968C124.042 50.8267 120.202 52.256 115.594 52.256C112.223 52.256 109.194 51.488 106.506 49.952C103.818 48.416 101.706 46.304 100.17 43.616C98.6765 40.8853 97.9298 37.856 97.9298 34.528C97.9298 31.1147 98.6551 28.064 100.106 25.376C101.599 22.6453 103.668 20.5333 106.314 19.04C108.959 17.504 111.946 16.736 115.274 16.736ZM154.287 16.672C157.231 16.672 159.877 17.312 162.223 18.592C164.57 19.872 166.405 21.7493 167.727 24.224C169.05 26.656 169.711 29.6 169.711 33.056V48.8C169.711 49.7387 169.391 50.528 168.751 51.168C168.154 51.7653 167.386 52.064 166.447 52.064C165.509 52.064 164.719 51.7653 164.079 51.168C163.482 50.528 163.183 49.7387 163.183 48.8V33.056C163.183 29.6 162.245 26.9973 160.367 25.248C158.533 23.456 156.079 22.56 153.007 22.56C151.215 22.56 149.573 22.9227 148.079 23.648C146.629 24.3733 145.477 25.3547 144.623 26.592C143.813 27.8293 143.407 29.216 143.407 30.752V48.8C143.407 49.7387 143.109 50.528 142.511 51.168C141.914 51.7653 141.125 52.064 140.143 52.064C139.205 52.064 138.415 51.7653 137.775 51.168C137.178 50.528 136.879 49.7387 136.879 48.8V5.28C136.879 4.29867 137.178 3.50933 137.775 2.912C138.415 2.31467 139.205 2.016 140.143 2.016C141.125 2.016 141.914 2.31467 142.511 2.912C143.109 3.50933 143.407 4.29867 143.407 5.28V20.96C144.773 19.5947 146.394 18.5493 148.271 17.824C150.149 17.056 152.154 16.672 154.287 16.672ZM210.711 33.952C210.711 34.7627 210.433 35.4453 209.879 36C209.324 36.512 208.62 36.768 207.767 36.768H183.447C183.916 39.7547 185.26 42.1653 187.479 44C189.74 45.8347 192.492 46.752 195.735 46.752C197.015 46.752 198.337 46.5173 199.703 46.048C201.111 45.5787 202.263 45.0027 203.159 44.32C203.756 43.8507 204.46 43.616 205.271 43.616C206.081 43.616 206.721 43.8293 207.191 44.256C207.959 44.896 208.343 45.6213 208.343 46.432C208.343 47.2 208.001 47.84 207.319 48.352C205.868 49.504 204.055 50.4427 201.879 51.168C199.745 51.8933 197.697 52.256 195.735 52.256C192.236 52.256 189.1 51.5093 186.327 50.016C183.553 48.48 181.377 46.368 179.799 43.68C178.263 40.992 177.495 37.9413 177.495 34.528C177.495 31.1147 178.22 28.064 179.671 25.376C181.164 22.6453 183.212 20.5333 185.815 19.04C188.46 17.504 191.447 16.736 194.775 16.736C198.06 16.736 200.897 17.4613 203.287 18.912C205.676 20.3627 207.511 22.3893 208.791 24.992C210.071 27.5947 210.711 30.5813 210.711 33.952ZM194.775 22.24C191.66 22.24 189.121 23.0933 187.159 24.8C185.239 26.5067 184.023 28.7893 183.511 31.648H204.823C204.439 28.7893 203.372 26.5067 201.623 24.8C199.873 23.0933 197.591 22.24 194.775 22.24ZM230.045 16.736C232.818 16.736 235.293 17.184 237.469 18.08C239.687 18.976 241.437 20.2133 242.717 21.792C243.271 22.4747 243.549 23.1573 243.549 23.84C243.549 24.5653 243.186 25.2267 242.461 25.824C241.991 26.1653 241.394 26.336 240.669 26.336C239.559 26.336 238.557 25.9307 237.661 25.12C236.594 24.1387 235.463 23.456 234.269 23.072C233.074 22.6453 231.623 22.432 229.917 22.432C227.954 22.432 226.333 22.7733 225.053 23.456C223.815 24.096 223.197 25.0133 223.197 26.208C223.197 27.0613 223.41 27.7867 223.837 28.384C224.263 28.9387 225.074 29.472 226.269 29.984C227.463 30.4533 229.191 30.9227 231.453 31.392C236.103 32.3307 239.389 33.632 241.309 35.296C243.271 36.96 244.253 39.1147 244.253 41.76C244.253 43.7227 243.719 45.5147 242.653 47.136C241.586 48.7147 240.007 49.9733 237.917 50.912C235.869 51.808 233.394 52.256 230.493 52.256C227.591 52.256 224.861 51.808 222.301 50.912C219.741 50.016 217.735 48.8427 216.285 47.392C215.73 46.8373 215.453 46.176 215.453 45.408C215.453 44.384 215.879 43.552 216.733 42.912C217.543 42.3147 218.29 42.016 218.973 42.016C219.826 42.016 220.637 42.4 221.405 43.168C222.215 44.064 223.431 44.8533 225.053 45.536C226.674 46.176 228.402 46.496 230.237 46.496C232.669 46.496 234.546 46.0907 235.869 45.28C237.234 44.4693 237.917 43.3813 237.917 42.016C237.917 40.6933 237.255 39.6053 235.933 38.752C234.61 37.856 232.37 37.1093 229.213 36.512C221.021 34.9333 216.925 31.5627 216.925 26.4C216.925 24.3093 217.543 22.5387 218.781 21.088C220.018 19.6373 221.639 18.5493 223.645 17.824C225.65 17.0987 227.783 16.736 230.045 16.736ZM263.515 16.736C266.288 16.736 268.763 17.184 270.939 18.08C273.157 18.976 274.907 20.2133 276.187 21.792C276.741 22.4747 277.019 23.1573 277.019 23.84C277.019 24.5653 276.656 25.2267 275.931 25.824C275.461 26.1653 274.864 26.336 274.139 26.336C273.029 26.336 272.027 25.9307 271.131 25.12C270.064 24.1387 268.933 23.456 267.739 23.072C266.544 22.6453 265.093 22.432 263.387 22.432C261.424 22.432 259.803 22.7733 258.523 23.456C257.285 24.096 256.667 25.0133 256.667 26.208C256.667 27.0613 256.88 27.7867 257.307 28.384C257.733 28.9387 258.544 29.472 259.739 29.984C260.933 30.4533 262.661 30.9227 264.923 31.392C269.573 32.3307 272.859 33.632 274.779 35.296C276.741 36.96 277.723 39.1147 277.723 41.76C277.723 43.7227 277.189 45.5147 276.123 47.136C275.056 48.7147 273.477 49.9733 271.387 50.912C269.339 51.808 266.864 52.256 263.963 52.256C261.061 52.256 258.331 51.808 255.771 50.912C253.211 50.016 251.205 48.8427 249.755 47.392C249.2 46.8373 248.923 46.176 248.923 45.408C248.923 44.384 249.349 43.552 250.203 42.912C251.013 42.3147 251.76 42.016 252.443 42.016C253.296 42.016 254.107 42.4 254.875 43.168C255.685 44.064 256.901 44.8533 258.523 45.536C260.144 46.176 261.872 46.496 263.707 46.496C266.139 46.496 268.016 46.0907 269.339 45.28C270.704 44.4693 271.387 43.3813 271.387 42.016C271.387 40.6933 270.725 39.6053 269.403 38.752C268.08 37.856 265.84 37.1093 262.683 36.512C254.491 34.9333 250.395 31.5627 250.395 26.4C250.395 24.3093 251.013 22.5387 252.251 21.088C253.488 19.6373 255.109 18.5493 257.115 17.824C259.12 17.0987 261.253 16.736 263.515 16.736Z" fill="#2276E4"/>
<path d="M91.4738 17.312C92.7965 17.824 93.4578 18.656 93.4578 19.808C93.4578 20.2347 93.3298 20.7467 93.0738 21.344L73.4898 65.376C72.9778 66.6987 72.1458 67.36 70.9938 67.36C70.5671 67.36 70.0551 67.232 69.4578 66.976C68.1778 66.4213 67.5378 65.5893 67.5378 64.48C67.5378 63.968 67.6658 63.456 67.9218 62.944L74.3218 48.544L59.9218 21.216C59.7085 20.832 59.6018 20.384 59.6018 19.872C59.6018 19.3173 59.7725 18.8053 60.1138 18.336C60.4551 17.8667 60.9031 17.504 61.4578 17.248C61.8418 17.0773 62.2685 16.992 62.7378 16.992C63.9325 16.992 64.8285 17.5893 65.4258 18.784L77.1378 42.08L87.4418 18.848C87.9965 17.6107 88.8285 16.992 89.9378 16.992C90.4925 16.992 91.0045 17.0987 91.4738 17.312Z" fill="#2276E4"/>
<path d="M53.8258 7.904C51.4365 7.904 49.5165 8.69333 48.0658 10.272C46.6151 11.8507 45.8898 13.9413 45.8898 16.544V18.272H52.4178C53.3138 18.272 54.0391 18.528 54.5938 19.04C55.1485 19.552 55.4258 20.2347 55.4258 21.088C55.4258 21.856 55.1485 22.496 54.5938 23.008C54.0391 23.52 53.3138 23.776 52.4178 23.776H45.8898V48.736C45.8898 49.7173 45.5911 50.5067 44.9938 51.104C44.3965 51.7013 43.5645 52 42.4978 52C41.6445 52 40.8978 51.7013 40.2578 51.104C39.6605 50.5067 39.3618 49.7173 39.3618 48.736V23.776H36.6098C35.7138 23.776 34.9885 23.52 34.4338 23.008C33.8791 22.496 33.6018 21.856 33.6018 21.088C33.6018 20.2347 33.8791 19.552 34.4338 19.04C34.9885 18.528 35.7138 18.272 36.6098 18.272H39.3618V17.184C39.3618 14.1547 39.9591 11.5093 41.1538 9.248C42.3911 6.944 44.0978 5.17333 46.2738 3.936C48.4925 2.656 51.0098 2.016 53.8258 2.016C54.7645 2.016 55.5325 2.29333 56.1298 2.848C56.7698 3.40266 57.0898 4.10666 57.0898 4.96C57.0898 5.81333 56.7698 6.51733 56.1298 7.072C55.5325 7.62667 54.7645 7.904 53.8258 7.904Z" fill="#2276E4"/>
<path d="M15.0159 9C10.8431 9 7.86254 14.3922 13.2276 17.6275C7.99725 23.4504 0 31.5 0 38.1176C0 44 4.46179 52.5 14.9618 52.5C18.4618 52.5 21.5733 50.5196 25.15 46.7451C25.15 56.9902 19.785 59.1471 15.6122 59.1471C11.4393 59.1471 8.45877 57.5294 5.4782 54.8333C5.4782 54.8333 3.68985 53.7549 1.90151 54.8333C0.113161 55.9118 -0.482954 56.451 1.30539 58.0686C1.30539 58.0686 7.26654 64 15.6122 64C23.9578 64 30.9511 56.9902 30.9511 51.0588V38.1176C31.2206 31.3974 26.3052 27.2832 23.9577 24.098L17.4004 37.5784C17.4004 37.5784 16.2082 39.1961 14.4198 38.1176C12.6315 37.0392 13.2276 36.5 13.2276 36.5L20.9771 20.8627L17.4004 17.6275C22.1693 14.3922 19.1887 9 15.0159 9Z" fill="#2276E4"/>
</svg>
